<!DOCTYPE svg PUBLIC "-//W3C//DTD SVG 1.1//EN" "http://www.w3.org/Graphics/SVG/1.1/DTD/svg11.dtd">
<!-- Uploaded to: SVG Repo, www.svgrepo.com, Transformed by: SVG Repo Mixer Tools -->
<svg height="800px" width="800px" version="1.1" id="Icons" xmlns="http://www.w3.org/2000/svg" xmlns:xlink="http://www.w3.org/1999/xlink" viewBox="0 0 32 32" xml:space="preserve" fill="#19679f" stroke="#19679f">
<g id="SVGRepo_bgCarrier" stroke-width="0"/>
<g id="SVGRepo_tracerCarrier" stroke-linecap="round" stroke-linejoin="round"/>
<g id="SVGRepo_iconCarrier"> <style type="text/css"> .st0{fill:#19679f;} </style> <path d="M11,1H9C7.3,1,6,2.3,6,4v1h4c0.6,0,1,0.4,1,1s-0.4,1-1,1H6v3h3c0.6,0,1,0.4,1,1s-0.4,1-1,1H6v3h4c0.6,0,1,0.4,1,1 s-0.4,1-1,1H6v3h3c0.6,0,1,0.4,1,1s-0.4,1-1,1H6v3h4c0.6,0,1,0.4,1,1s-0.4,1-1,1H6v1c0,1.7,1.3,3,3,3h2c1.7,0,3-1.3,3-3V4 C14,2.3,12.7,1,11,1z"/> <g> <path d="M26,6V4c0-1.7-1.3-3-3-3h-2c-1.7,0-3,1.3-3,3v2H26z"/> <path d="M18,8v18c0,0.2,0.1,0.4,0.2,0.6l3,4c0.2,0.3,0.5,0.4,0.8,0.4s0.6-0.1,0.8-0.4l3-4c0.1-0.2,0.2-0.4,0.2-0.6V8H18z"/> </g> </g>
</svg>